#!OML:ASF X:\für Bonn\!DataBase\2005_08_11_Bastian_Final\c3d\Bastian.ASF
:FULLY-SPECIFIED
:DEGREES
81
root 2.11211 17.5128 -3.32889 718.705 3.39139 -7.63655
lowerback 18.6992 0.92589 0.468702
upperback 5.93844 1.28147 -0.393026
thorax -4.05947 0.636167 -0.960815
lowerneck -12.9232 -7.01887 -8.84245
upperneck -8.9366 -7.83093 14.8718
head 0.460966 -3.60664 5.60272
rclavicle 5.96354e-015 2.22639e-014
rhumerus -49.0869 -4.81335 -86.0964
rradius 26.4211
rwrist -0.465021
rhand -22.226 16.2981
rfingers 7.12502
rthumb 4.19055 -13.6405
lclavicle 5.96354e-015 2.22639e-014
lhumerus -35.8014 28.8032 66.7008
lradius 31.6656
lwrist -170.833
lhand -22.2572 2.98024
lfingers 7.12502
lthumb 4.16039 32.9194
rfemur -31.5526 -6.32463 30.3719
rtibia 53.2821
rfoot 6.18688 -1.71271
rtoes 31.9779
lfemur -29.9437 -1.3631 -11.5738
ltibia 53.0247
lfoot -1.10335 -7.553
ltoes -28.2242
82
root 2.11204 17.1365 -3.13551 718.669 3.76428 -7.69587
lowerback 18.6799 0.878559 0.537787
upperback 5.83796 1.23598 -0.345705
thorax -4.15707 0.613254 -0.940973
lowerneck -13.0812 -7.02762 -8.60329
upperneck -9.0652 -7.84516 15.0089
head 0.448368 -3.61552 5.60363
rclavicle -2.70347e-014 -3.10104e-014
rhumerus -49.2294 -5.60329 -85.4199
rradius 25.5726
rwrist -0.672696
rhand -22.7775 16.8684
rfingers 7.12502
rthumb 3.65797 -13.0799
lclavicle -2.70347e-014 -3.10104e-014
lhumerus -35.2571 28.1292 67.8042
lradius 32.0011
lwrist -167.709
lhand -21.8357 3.46819
lfingers 7.12502
lthumb 4.56742 33.3989
rfemur -31.9328 -6.42172 30.438
rtibia 55.7852
rfoot 1.55328 1.65332
rtoes 31.6501
lfemur -30.7684 -1.02811 -11.7928
ltibia 56.4329
lfoot -6.41632 -8.13102
ltoes -25.8848
83
root 2.11335 16.769 -2.94634 718.62 4.12579 -7.69828
lowerback 18.8028 0.833423 0.533557
upperback 5.7298 1.18002 -0.306221
thorax -4.33898 0.584502 -0.888239
lowerneck -13.3979 -7.0392 -8.24969
upperneck -9.10056 -7.87988 15.0323
head 0.47758 -3.63023 5.54331
rclavicle -1.11319e-014 -1.51076e-014
rhumerus -49.2279 -6.44501 -84.6888
rradius 24.8687
rwrist -0.708576
rhand -23.2806 16.6309
rfingers 7.12502
rthumb 3.17208 -13.3253
lclavicle -1.11319e-014 -1.51076e-014
lhumerus -34.5093 27.2095 69.1757
lradius 32.3518
lwrist -164.573
lhand -21.5038 4.0208
lfingers 7.12502
lthumb 4.88789 33.9444
rfemur -32.2956 -6.5356 30.4793
rtibia 58.5007
rfoot -3.42775 4.34359
rtoes 34.358
lfemur -31.7057 -0.805744 -12.0365
ltibia 60.0855
lfoot -11.5716 -8.46867
ltoes -22.9088
84
root 2.11378 16.4133 -2.76158 718.558 4.44436 -7.75391
lowerback 18.9081 0.789034 0.622885
upperback 5.64864 1.14127 -0.283009
thorax -4.48023 0.564556 -0.908717
lowerneck -13.5175 -7.04147 -7.73693
upperneck -9.49755 -7.90401 14.8513
head 0.349269 -3.66236 5.40806
rclavicle 7.55382e-015 -8.74653e-015
rhumerus -49.108 -7.36595 -83.9441
rradius 24.2823
rwrist -0.720792
rhand -23.5737 15.7593
rfingers 7.12502
rthumb 2.88908 -14.2009
lclavicle 7.55382e-015 -8.74653e-015
lhumerus -33.3852 26.1893 70.7066
lradius 32.5466
lwrist -162.002
lhand -21.1272 4.43127
lfingers 7.12502
lthumb 5.25154 34.3462
rfemur -32.7012 -6.6212 30.634
rtibia 61.3852
rfoot -8.93144 6.95825
rtoes 36.942
lfemur -32.6401 -0.573563 -12.2027
ltibia 63.8146
lfoot -16.3526 -8.64976
ltoes -20.1332
85
root 2.115 16.0662 -2.58511 718.494 4.71452 -7.81385
lowerback 19.0564 0.744686 0.761732
upperback 5.599 1.11156 -0.270912
thorax -4.60905 0.54899 -0.971371
lowerneck -13.4066 -7.02557 -7.23041
upperneck -10.403 -7.8636 14.7343
head 0.0334148 -3.68486 5.31665
rclavicle 3.18055e-015 -3.97569e-015
rhumerus -48.6898 -8.43399 -83.1331
rradius 23.634
rwrist -0.718491
rhand -23.654 14.6547
rfingers 7.12502
rthumb 2.81148 -15.3065
lclavicle 3.18055e-015 -3.97569e-015
lhumerus -31.8132 25.2245 72.3384
lradius 32.6659
lwrist -160.451
lhand -20.7737 4.37675
lfingers 7.12502
lthumb 5.59284 34.2829
rfemur -33.24 -6.63624 30.845
rtibia 64.404
rfoot -14.6011 9.07753
rtoes 38.8053
lfemur -33.5541 -0.394665 -12.3096
ltibia 67.4725
lfoot -20.5271 -8.74163
ltoes -16.8239
86
root 2.11599 15.7422 -2.41371 718.454 4.88442 -7.8032
lowerback 19.22 0.733688 0.823521
upperback 5.56924 1.10954 -0.285936
thorax -4.7251 0.547118 -1.0253
lowerneck -13.237 -7.01515 -6.83679
upperneck -11.4531 -7.79781 14.7841
head -0.321537 -3.69888 5.30297
rclavicle -5.56597e-015 -1.59028e-014
rhumerus -47.8886 -9.70499 -82.2309
rradius 22.6735
rwrist -0.465213
rhand -23.6014 13.7835
rfingers 7.12502
rthumb 2.86232 -16.177
lclavicle -5.56597e-015 -1.59028e-014
lhumerus -29.9101 24.2394 74.0063
lradius 32.7166
lwrist -159.736
lhand -20.9157 4.11613
lfingers 7.12502
lthumb 5.45572 34.0259
rfemur -33.9317 -6.4807 31.0258
rtibia 67.4714
rfoot -19.9182 10.3223
rtoes 39.5151
lfemur -34.3676 -0.260308 -12.4239
ltibia 70.9507
lfoot -24.3024 -8.88814
ltoes -14.0298
87
root 2.11759 15.451 -2.24839 718.375 5.0152 -7.82683
lowerback 19.5218 0.707749 0.97034
upperback 5.53842 1.10385 -0.326713
thorax -4.91234 0.542429 -1.15672
lowerneck -13.2962 -7.00295 -6.37728
upperneck -12.2772 -7.74936 14.7707
head -0.580779 -3.71125 5.24743
rclavicle -4.77083e-015 -1.82882e-014
rhumerus -47.0387 -10.5591 -81.777
rradius 22.09
rwrist -0.67828
rhand -23.1388 12.9747
rfingers 7.12502
rthumb 3.30907 -16.9794
lclavicle -4.77083e-015 -1.82882e-014
lhumerus -27.8934 23.175 75.5978
lradius 32.8897
lwrist -159.866
lhand -21.7334 4.32292
lfingers 7.12502
lthumb 4.6662 34.2515
rfemur -34.5954 -6.13762 31.2683
rtibia 70.4205
rfoot -24.6085 10.7464
rtoes 39.3082
lfemur -35.0463 -0.18978 -12.4142
ltibia 74.1999
lfoot -27.9133 -9.20275
ltoes -12.8738
88
root 2.1201 15.1985 -2.08998 718.272 5.18866 -7.7941
lowerback 19.9624 0.652566 1.06814
upperback 5.54929 1.05187 -0.380192
thorax -5.12919 0.515005 -1.2651
lowerneck -13.5507 -6.95896 -5.5939
upperneck -13.178 -7.70292 14.3386
head -0.874429 -3.73214 5.00897
rclavicle 4.17448e-014 -6.36111e-015
rhumerus -45.8387 -11.0554 -81.6763
rradius 21.7294
rwrist -1.05063
rhand -22.4387 12.378
rfingers 7.12502
rthumb 3.98512 -17.5645
lclavicle 4.17448e-014 -6.36111e-015
lhumerus -25.6864 21.9261 77.2408
lradius 33.3371
lwrist -160.641
lhand -23.0192 4.68524
lfingers 7.12502
lthumb 3.42453 34.6375
rfemur -35.1486 -5.78176 31.46
rtibia 73.1217
rfoot -28.3008 10.6892
rtoes 38.8039
lfemur -35.6133 -0.208166 -12.4525
ltibia 77.1531
lfoot -30.8096 -9.52223
ltoes -12.5612
89
root 2.12367 14.9868 -1.93796 718.105 5.42946 -7.7679
lowerback 20.5128 0.553247 1.26858
upperback 5.63658 0.962844 -0.471163
thorax -5.31916 0.4697 -1.46384
lowerneck -13.9389 -6.93044 -4.74276
upperneck -14.1939 -7.68487 13.8021
head -1.1907 -3.76992 4.72739
rclavicle -2.14687e-014 -1.90833e-014
rhumerus -44.4264 -10.9523 -82.2025
rradius 22.0116
rwrist -1.71931
rhand -22.257 12.0395
rfingers 7.12502
rthumb 4.1606 -17.8996
lclavicle -2.14687e-014 -1.90833e-014
lhumerus -23.0095 20.1628 78.958
lradius 33.6559
lwrist -161.778
lhand -24.2701 5.05036
lfingers 7.12502
lthumb 2.21654 35.0186
rfemur -35.4753 -5.49918 31.6552
rtibia 75.4537
rfoot -30.9755 10.3468
rtoes 38.0022
lfemur -35.9636 -0.372464 -12.4539
ltibia 79.7092
lfoot -32.7512 -9.91568
ltoes -11.3728
90
root 2.12877 14.8207 -1.78595 717.913 5.67721 -7.68991
lowerback 21.1115 0.420858 1.40007
upperback 5.71893 0.820608 -0.54266
thorax -5.54248 0.398303 -1.58935
lowerneck -14.3233 -6.89156 -4.21133
upperneck -15.2124 -7.61074 13.4811
head -1.4879 -3.76932 4.5679
rclavicle -5.1684e-015 2.22639e-014
rhumerus -43.0047 -9.88341 -83.2524
rradius 22.8943
rwrist -2.53105
rhand -22.7693 11.8868
rfingers 7.12502
rthumb 3.66593 -18.0614
lclavicle -5.1684e-015 2.22639e-014
lhumerus -20.1436 18.1955 80.649
lradius 33.9284
lwrist -163.107
lhand -25.641 5.85023
lfingers 7.12502
lthumb 0.892505 35.8281
rfemur -35.5357 -5.24602 31.7663
rtibia 77.3442
rfoot -32.8782 9.90599
rtoes 37.4105
lfemur -36.0874 -0.593445 -12.5097
ltibia 81.7745
lfoot -34.0515 -10.3206
ltoes -10.0795
91
root 2.13361 14.6926 -1.62974 717.752 5.82961 -7.62082
lowerback 21.6282 0.272216 1.52942
upperback 5.75985 0.654703 -0.646477
thorax -5.76841 0.314881 -1.74004
lowerneck -14.7825 -6.81095 -3.73832
upperneck -15.997 -7.49424 13.2447
head -1.70101 -3.73813 4.43738
rclavicle -1.86858e-014 1.27222e-014
rhumerus -41.6789 -8.42616 -84.3996
rradius 24.0656
rwrist -2.59015
rhand -23.4408 11.8279
rfingers 7.12502
rthumb 3.01742 -18.1305
lclavicle -1.86858e-014 1.27222e-014
lhumerus -17.4044 15.3221 82.1307
lradius 34.6183
lwrist -163.837
lhand -26.8859 7.33715
lfingers 7.12502
lthumb -0.309845 37.3167
rfemur -35.3716 -4.77585 31.9111
rtibia 78.7836
rfoot -34.4301 9.30826
rtoes 36.9835
lfemur -36.0503 -0.76815 -12.5241
ltibia 83.3514
lfoot -34.8585 -10.8026
ltoes -8.45143
92
root 2.13908 14.6018 -1.45985 717.544 5.89042 -7.48004
lowerback 21.9533 0.148025 1.63597
upperback 5.78989 0.510271 -0.798112
thorax -5.90652 0.24286 -1.93118
lowerneck -15.1602 -6.76456 -3.51888
upperneck -16.569 -7.39947 13.2346
head -1.83632 -3.70515 4.41171
rclavicle -4.77083e-015 1.27222e-014
rhumerus -40.5732 -7.04881 -85.2663
rradius 25.6399
rwrist -1.93743
rhand -23.2884 11.634
rfingers 7.12502
rthumb 3.16457 -18.3222
lclavicle -4.77083e-015 1.27222e-014
lhumerus -15.0189 11.9327 83.336
lradius 35.6463
lwrist -164.146
lhand -27.2851 8.13431
lfingers 7.12502
lthumb -0.695409 38.1129
rfemur -34.8208 -4.07703 31.9532
rtibia 79.7733
rfoot -35.4375 8.89576
rtoes 37.2134
lfemur -35.6548 -0.878295 -12.6024
ltibia 84.4496
lfoot -35.4421 -11.2863
ltoes -7.14658
93
root 2.14353 14.5466 -1.28841 717.358 5.91434 -7.2989
lowerback 22.1241 0.0414135 1.70241
upperback 5.80611 0.377559 -0.95389
thorax -5.98084 0.177383 -2.10463
lowerneck -15.6668 -6.7608 -3.48845
upperneck -16.8213 -7.35591 13.3477
head -1.83755 -3.67554 4.43908
rclavicle -7.55382e-015 -1.27222e-014
rhumerus -39.5399 -5.69828 -85.9506
rradius 27.7513
rwrist -0.929907
rhand -23.1537 12.7364
rfingers 7.12502
rthumb 3.29467 -17.2178
lclavicle -7.55382e-015 -1.27222e-014
lhumerus -13.0303 8.21581 84.2151
lradius 36.9535
lwrist -164.473
lhand -27.2686 8.62375
lfingers 7.12502
lthumb -0.679522 38.6024
rfemur -34.1091 -3.28196 31.9583
rtibia 80.4114
rfoot -36.168 8.39803
rtoes 37.3326
lfemur -35.0578 -0.968063 -12.7132
ltibia 85.1301
lfoot -35.8128 -11.6529
ltoes -6.68643
94
root 2.14891 14.5276 -1.1135 717.227 5.86561 -7.11973
lowerback 22.1538 -0.065442 1.72895
upperback 5.76603 0.234622 -1.09125
thorax -6.04564 0.106586 -2.2312
lowerneck -16.2237 -6.75337 -3.63014
upperneck -16.7374 -7.30519 13.5826
head -1.71607 -3.62263 4.52107
rclavicle -3.57812e-015 9.54166e-015
rhumerus -38.5304 -4.3109 -86.466
rradius 30.3436
rwrist 0.509901
rhand -22.7573 14.0885
rfingers 7.12502
rthumb 3.67745 -15.8595
lclavicle -3.57812e-015 9.54166e-015
lhumerus -11.4906 4.19793 84.6858
lradius 39.2611
lwrist -164.318
lhand -27.1599 7.45073
lfingers 7.12502
lthumb -0.574552 37.4297
rfemur -33.2737 -2.45214 31.9294
rtibia 80.7351
rfoot -36.8192 7.90832
rtoes 37.1319
lfemur -34.2628 -1.01658 -12.8109
ltibia 85.4118
lfoot -36.015 -11.99
ltoes -6.73334
